HIERARCHY
ROOT ui
{
	 OFFSET 0 0 0
	 CHANNELS 3 XPosition YPosition Z Position
	 EndSite
	 {
	 OFFSET 0 -1 0
	 }
}
ROOT li
{
	 OFFSET 0 0 0
	 CHANNELS 3 XPosition YPosition Z Position
	 EndSite
	 {
	 OFFSET 0 -1 0
	 }
}
ROOT ul
{
	 OFFSET 0 0 0
	 CHANNELS 3 XPosition YPosition Z Position
	 EndSite
	 {
	 OFFSET 0 -1 0
	 }
}
ROOT ll
{
	 OFFSET 0 0 0
	 CHANNELS 3 XPosition YPosition Z Position
	 EndSite
	 {
	 OFFSET 0 -1 0
	 }
}
ROOT tt
{
	 OFFSET 0 0 0
	 CHANNELS 3 XPosition YPosition Z Position
	 EndSite
	 {
	 OFFSET 0 -1 0
	 }
}
ROOT tb
{
	 OFFSET 0 0 0
	 CHANNELS 3 XPosition YPosition Z Position
	 EndSite
	 {
	 OFFSET 0 -1 0
	 }
}
ROOT td
{
	 OFFSET 0 0 0
	 CHANNELS 3 XPosition YPosition Z Position
	 EndSite
	 {
	 OFFSET 0 -1 0
	 }
}
ROOT v
{
	 OFFSET 0 0 0
	 CHANNELS 3 XPosition YPosition Z Position
	 EndSite
	 {
	 OFFSET 0 -1 0
	 }
}
ROOT bn
{
	 OFFSET 0 0 0
	 CHANNELS 3 XPosition YPosition Z Position
	 EndSite
	 {
	 OFFSET 0 -1 0
	 }
}
MOTION
Frames: 21
Frame Time: 0.002
-0.006170163154602051	0.00105424702167511	0		0.5120186767578125	-2.471825927734375	0		-0.8306959228515625	0.3537045593261719	0		-0.6912985229492188	-2.566333251953125	0		1.607729736328125	-0.7157944946289062	0		3.27131640625	-0.8362338256835937	0		4.467107421875	-0.549613525390625	0		5.960119140625	0.3732309875488281	0		-0.02871890449523926	6.01384375	0		
-0.0054722900390625	5.917220115661621E-4	0		0.5106613159179687	-2.475265869140625	0		-0.7600530395507813	0.3483457641601562	0		-0.6478020629882812	-2.58134423828125	0		1.5974107666015624	-0.7171260986328125	0		3.240804931640625	-0.8523176879882812	0		4.46962109375	-0.5641309204101562	0		5.947923828125	0.3808949584960937	0		-0.028967361450195312	6.01439404296875	0		
-8.852779865264893E-4	-0.0039034841060638426	0		0.521177978515625	-2.483842041015625	0		-0.8293541259765626	0.3528097534179688	0		-0.7201116333007812	-2.575842529296875	0		1.59804443359375	-0.7175819091796874	0		3.2605390625	-0.8450313110351563	0		4.470255859375	-0.5646079711914063	0		5.9624482421875	0.37122723388671874	0		-0.012156378746032715	6.0237431640625	0		
-0.0042537522315979	-2.77319997549057E-4	0		0.5237637329101562	-2.482297119140625	0		-0.7447916870117187	0.3503073120117188	0		-0.6367268676757812	-2.590331787109375	0		1.598618408203125	-0.71801953125	0		3.23886865234375	-0.864196533203125	0		4.46187060546875	-0.5619522094726562	0		5.96303076171875	0.37075537109375	0		-0.02765725326538086	6.013525390625	0		
0.0033567090034484865	0.006226037979125977	0		0.524264404296875	-2.48270703125	0		-0.7492031860351562	0.35497174072265625	0		-0.6742109985351562	-2.589241943359375	0		1.579315673828125	-0.7041810913085937	0		3.24939453125	-0.8637575073242187	0		4.4552451171875	-0.5733025512695312	0		5.95456787109375	0.37141778564453126	0		-0.027088186264038087	6.01311962890625	0		
-0.003270620107650757	-0.0010688469409942628	0		0.5476148071289062	-2.490393798828125	0		-0.7537891845703125	0.35065673828125	0		-0.6418621826171875	-2.597035400390625	0		1.5706441650390626	-0.71446240234375	0		3.246785888671875	-0.8691300048828124	0		4.4516259765625	-0.579671630859375	0		5.95481396484375	0.35398599243164064	0		0.007496745109558106	6.01829443359375	0		
-0.029849777221679686	-8.593399822711945E-5	0		0.51901708984375	-2.48938916015625	0		-0.8273746948242188	0.3512529602050781	0		-0.6574488525390625	-2.59518994140625	0		1.562071044921875	-0.7127240600585938	0		3.228057373046875	-0.8792740478515625	0		4.448962890625	-0.585031982421875	0		5.95132568359375	0.361626220703125	0		0.007947660923004151	6.01792822265625	0		
0.028432540893554688	-0.006181897163391114	0		0.526208984375	-2.50082861328125	0		-0.8170342407226563	0.349782958984375	0		-0.6743203735351563	-2.611310546875	0		1.56241796875	-0.7130812377929687	0		3.23124755859375	-0.891680419921875	0		4.4452333984375	-0.5913567504882813	0		5.94756396484375	0.35229141235351563	0		-0.009605925559997558	6.021814453125	0		
-0.01717063331604004	0.0010859299898147584	0		0.5025886535644531	-2.4938486328125	0		-0.8016791381835937	0.35326687622070313	0		-0.660073974609375	-2.61481396484375	0		1.5577940673828126	-0.707353271484375	0		3.24163427734375	-0.8851569213867188	0		4.4455322265625	-0.591710693359375	0		5.94786865234375	0.3519281921386719	0		0.0068615741729736324	6.03127978515625	0		
0.035185802459716795	0.008105881690979004	0		0.5557371826171875	-2.50184326171875	0		-0.8064713134765625	0.349030029296875	0		-0.6846865234375	-2.6037939453125	0		1.5441522216796875	-0.699487548828125	0		3.2136689453125	-0.9021170654296875	0		4.45955224609375	-0.6102210083007813	0		5.93992138671875	0.3356943054199219	0		-0.025104484558105468	6.0113896484375	0		
-0.02872353935241699	-0.0013502479791641234	0		0.5249164428710937	-2.50372998046875	0		-0.8103063354492187	0.34480047607421876	0		-0.6436951293945312	-2.62060595703125	0		1.52439111328125	-0.6975218505859375	0		3.201867431640625	-0.9032628784179687	0		4.4406357421875	-0.620281494140625	0		5.92625537109375	0.34456024169921873	0		0.009214463233947754	6.0166630859375	0		
-0.0015645920038223266	-0.002964972972869873	0		0.54898681640625	-2.5113076171875	0		-0.810130615234375	0.3445389099121094	0		-0.6777111206054688	-2.634426513671875	0		1.5184720458984375	-0.7047154541015626	0		3.2018173828125	-0.9205408325195312	0		4.4407685546875	-0.6235661010742187	0		5.93131396484375	0.33520477294921874	0		-0.02465953254699707	6.0108388671875	0		
-0.028412586212158204	-0.001860293984413147	0		0.5211414184570312	-2.5091923828125	0		-0.809992431640625	0.3442971496582031	0		-0.6406143188476563	-2.637148193359375	0		1.5155543212890625	-0.7089276733398437	0		3.18404248046875	-0.9135665893554688	0		4.4368251953125	-0.62977734375	0		5.94065869140625	0.3508170166015625	0		-0.008369515419006348	6.0203857421875	0		
0.031765424728393554	0.0031363179683685303	0		0.540027587890625	-2.525664794921875	0		-0.8007827758789062	0.3519578552246094	0		-0.6587255249023437	-2.65313623046875	0		1.4628297119140625	-0.6954730834960937	0		3.192884033203125	-0.9339196166992187	0		4.43386328125	-0.6349811401367188	0		5.940765625	0.35056787109375	0		-0.009226940155029296	6.02117333984375	0		
-0.021135932922363283	0.004618021965026855	0		0.5561361694335938	-2.523079833984375	0		-0.8057516479492187	0.3478209228515625	0		-0.6277613525390625	-2.661739990234375	0		1.5048916015625	-0.6972288208007813	0		3.187065673828125	-0.9260606689453125	0		4.421904296875	-0.6380484619140625	0		5.9406279296875	0.3333400573730469	0		-0.024262882232666014	6.01016357421875	0		
0.02887225341796875	-2.1596600115299225E-4	0		0.550099853515625	-2.530189697265625	0		-0.8097374877929687	0.3436905517578125	0		-0.631759521484375	-2.66587109375	0		1.45095751953125	-0.6967203979492187	0		3.18385400390625	-0.9472188720703125	0		4.4237451171875	-0.6552769165039063	0		5.935810546875	0.34219400024414065	0		-0.024174049377441408	6.0099775390625	0		
-0.001124039053916931	-0.00399384093284607	0		0.5579990844726562	-2.541462158203125	0		-0.735689208984375	0.34256640625	0		-0.565878662109375	-2.678891357421875	0		1.478927490234375	-0.7032565307617188	0		3.149880126953125	-0.9489580078125	0		4.4166533203125	-0.6663707275390625	0		5.93174853515625	0.33305487060546873	0		-0.02409620475769043	6.009810546875	0		
-0.0010781710147857665	-0.004143622875213623	0		0.5359069213867188	-2.55132763671875	0		-0.79975341796875	0.3342509460449219	0		-0.6569915161132812	-2.689856689453125	0		1.4370001220703126	-0.7008672485351563	0		3.152766357421875	-0.9611582641601563	0		4.4185146484375	-0.6805629272460938	0		5.93278271484375	0.3318685607910156	0		-0.007897934913635253	6.0194521484375	0		
0.009104992866516113	0.006592915058135986	0		0.5488859252929688	-2.555630859375	0		-0.7896079711914062	0.34199063110351563	0		-0.622014892578125	-2.694441162109375	0		1.437038818359375	-0.701005126953125	0		3.158907470703125	-0.9533809204101562	0		4.41548876953125	-0.6856721801757812	0		5.94082470703125	0.33161062622070314	0		0.027226915359497072	6.02386474609375	0		
0.010039101600646973	-0.0015352879762649536	0		0.5448646240234375	-2.559696044921875	0		-0.794620361328125	0.33794241333007813	0		-0.628075439453125	-2.7014765625	0		1.420128173828125	-0.6969049682617188	0		3.130737060546875	-0.9691414184570313	0		4.41142138671875	-0.6937488403320312	0		5.9328642578125	0.33158059692382813	0		0.010167827606201172	6.01497021484375	0		
0.006126316070556641	0.0024168169498443603	0		0.5647356567382813	-2.5720556640625	0		-0.7996361694335937	0.3339101867675781	0		-0.601205322265625	-2.713924072265625	0		1.4110322265625	-0.7068901977539063	0		3.108667724609375	-0.9769622192382813	0		4.40531201171875	-0.7047803344726562	0		5.92779638671875	0.32353207397460937	0		-0.023857446670532228	6.00931298828125	0		
